<svg version="1.1" id="Layer_1" xmlns="http://www.w3.org/2000/svg" xmlns:xlink="http://www.w3.org/1999/xlink" x="0px" y="0px"
	 width="100%" viewBox="0 0 448 448" enable-background="new 0 0 448 448" xml:space="preserve">
<path fill="#000000" opacity="1.000000" stroke="none" 
	d="
M182.318283,227.644897 
	C191.237656,239.481384 202.738785,246.560303 217.290573,246.503174 
	C238.708115,246.419098 258.461517,229.335831 258.747406,206.959839 
	C258.805847,202.384857 259.680725,199.017899 265.262054,197.608810 
	C272.491913,195.783539 273.395203,189.137009 273.848175,182.805023 
	C273.965973,181.158432 273.784912,179.471100 273.569275,177.824982 
	C273.306458,175.818771 273.368073,174.027679 275.830872,173.633072 
	C278.338348,173.231323 279.435730,174.865845 280.055847,176.953598 
	C282.769501,186.089859 277.509369,198.985886 268.969574,203.073502 
	C266.242218,204.378967 265.477966,205.858932 265.218933,208.673660 
	C264.686188,214.462204 263.590546,220.228561 260.549957,225.320984 
	C258.741394,228.349945 259.410522,230.008163 262.490723,231.600677 
	C274.887604,238.010086 287.287689,244.427246 299.479462,251.213699 
	C306.155701,254.930008 311.401642,260.575104 314.185303,267.658600 
	C322.631622,289.152008 331.062531,310.671570 338.648163,332.477081 
	C345.436096,351.989502 337.024109,365.155151 321.867584,375.419556 
	C319.509094,377.016815 316.633362,377.385101 313.727173,377.383911 
	C249.406860,377.358063 185.086563,377.359497 120.766251,377.366974 
	C111.651382,377.368042 106.376877,370.937775 101.233635,365.020630 
	C90.640137,352.833160 92.786911,339.403290 98.202362,325.644043 
	C104.342964,310.042450 110.217606,294.324646 115.734123,278.492279 
	C120.849487,263.811249 129.190094,252.597260 144.033432,246.301743 
	C153.935471,242.102005 163.187973,236.370148 172.727921,231.317841 
	C174.728378,230.258438 175.707764,228.944016 174.571564,226.509552 
	C171.678940,220.311676 169.082413,214.020111 169.544571,206.921524 
	C169.695831,204.598022 167.700058,203.961334 165.972855,203.336273 
	C155.919098,199.697784 150.917770,181.067688 155.659729,174.216492 
	C156.766159,172.617920 157.396896,170.142960 160.013397,171.239014 
	C162.651566,172.344131 162.181152,174.280869 161.143036,176.614670 
	C158.106476,183.441147 161.445038,197.050232 171.531052,198.440384 
	C174.509033,198.850830 175.525040,200.511917 175.309723,203.217300 
	C174.601898,212.111115 178.110413,219.787064 182.318283,227.644897 
M142.231033,370.366302 
	C144.111298,371.338867 146.144882,371.003662 148.122147,371.004517 
	C180.931885,371.018860 213.741608,371.010834 246.551346,371.008911 
	C260.208191,371.008118 273.865021,371.019775 287.521881,371.006042 
	C293.728973,370.999817 293.858734,370.855194 293.884949,364.493225 
	C293.901367,360.496155 293.880859,356.498993 293.880737,352.501862 
	C293.880035,329.851501 293.902649,307.201111 293.866730,284.550812 
	C293.856262,277.954224 292.250763,276.414856 285.575623,276.214752 
	C284.410583,276.179840 283.244232,276.179688 282.078491,276.179871 
	C238.443222,276.186035 194.807953,276.190582 151.172684,276.205109 
	C142.586166,276.207977 140.992722,277.787384 140.983139,286.392578 
	C140.954391,312.207062 140.947205,338.021576 140.950943,363.836060 
	C140.951218,365.818695 140.708038,367.846466 142.231033,370.366302 
M138.066742,273.550690 
	C141.538971,270.623932 145.508148,269.588043 150.069153,269.597321 
	C195.212234,269.689026 240.355576,269.645538 285.498840,269.658600 
	C295.239685,269.661438 300.223846,274.543610 300.301605,284.380280 
	C300.405640,297.539307 300.313843,310.699829 300.359528,323.859497 
	C300.365082,325.458405 299.882629,327.160614 301.079315,328.958160 
	C303.957489,327.350372 306.765167,325.655182 309.691681,324.198822 
	C311.234528,323.430969 313.088043,323.274017 314.187592,324.969147 
	C315.484070,326.967926 314.255524,328.539368 312.652191,329.606354 
	C309.475616,331.720276 306.226929,333.737488 302.913269,335.628601 
	C301.334045,336.529846 300.317810,337.477722 300.329590,339.455078 
	C300.385284,348.783051 300.358276,358.111572 300.343475,367.439880 
	C300.340485,369.332001 300.934784,370.915100 303.050293,370.876190 
	C309.848846,370.751282 316.591278,372.256195 322.888458,367.041779 
	C332.187836,359.341278 338.054230,346.893463 332.573761,333.385712 
	C325.334991,315.544281 319.232086,297.244446 312.489471,279.198212 
	C309.078979,270.070129 304.938324,261.150787 295.975372,256.176941 
	C283.943115,249.499771 271.529633,243.512695 259.418701,236.972229 
	C256.005432,235.128906 254.054108,235.637802 251.334381,238.375366 
	C238.258392,251.537125 217.660431,256.599182 199.312988,249.001343 
	C191.598907,245.806870 185.498505,240.628281 179.444214,234.677979 
	C166.849350,241.320206 154.357086,247.868286 141.903854,254.489761 
	C133.376831,259.023651 127.373360,265.617096 124.035835,274.918518 
	C117.311417,293.658966 111.105164,312.677460 102.885345,330.763214 
	C94.777290,348.603119 106.264122,374.540924 130.184570,371.088959 
	C133.026810,370.678772 134.383896,370.011139 134.373444,366.967255 
	C134.342606,357.975281 134.463516,348.982269 134.592133,339.990631 
	C134.622162,337.891388 133.672455,336.665802 131.931366,335.613403 
	C128.667358,333.640411 125.461472,331.550720 122.379799,329.305878 
	C121.009689,328.307800 118.869225,327.059296 120.388519,324.918701 
	C121.810547,322.915131 123.978310,323.609009 125.807037,324.571594 
	C128.383896,325.927948 130.643387,327.947540 134.013962,328.468109 
	C135.014526,317.131317 134.329895,306.008423 134.292984,294.898926 
	C134.269379,287.792755 132.929672,280.500916 138.066742,273.550690 
z"/>
<path fill="#000000" opacity="1.000000" stroke="none" 
	d="
M183.615723,146.592865 
	C179.019608,152.937286 174.630692,158.993179 170.327393,165.109299 
	C169.220001,166.683197 168.100235,168.111877 165.983276,167.898178 
	C163.789581,167.676712 163.182007,165.891998 162.494675,164.134903 
	C157.378891,151.056992 157.475693,137.928268 161.612488,124.601715 
	C164.349258,115.785339 167.813980,107.412636 174.097870,100.504700 
	C182.770126,90.971230 193.754349,86.021133 206.453629,84.747795 
	C210.441620,84.347931 212.497894,85.982651 211.554504,90.362663 
	C211.253662,91.759445 211.507431,93.275673 211.507431,95.341858 
	C214.878036,94.426880 217.877289,93.713913 220.812988,92.797386 
	C230.820557,89.673012 240.802536,89.957199 250.762970,92.929680 
	C252.777512,93.530876 255.134659,93.884903 255.241547,96.815140 
	C255.337326,99.440475 253.581696,100.655006 251.623474,101.703087 
	C250.042023,102.549515 248.126343,102.886612 247.105881,104.959259 
	C252.026733,107.274696 257.567139,107.781845 262.326691,110.610596 
	C272.147980,116.447670 277.121490,125.601730 280.176361,136.001236 
	C281.593903,140.826859 279.326263,142.856995 274.248688,142.095078 
	C271.968536,141.752914 269.716888,141.220825 266.664185,140.619736 
	C271.079681,147.464920 275.545593,153.528046 278.642914,160.406891 
	C281.227417,166.146774 280.170044,168.016586 274.054413,168.337448 
	C253.978424,169.390747 235.757736,163.189758 218.155243,154.354645 
	C208.624496,149.570953 199.818542,143.692062 191.370865,136.935654 
	C188.002792,139.579819 186.494446,143.421082 183.615723,146.592865 
z"/>
<path fill="#000000" opacity="1.000000" stroke="none" 
	d="
M244.800568,196.152466 
	C242.829163,196.147736 241.329926,196.143570 239.830688,196.141052 
	C226.757874,196.119171 225.642242,195.290482 221.492264,182.658173 
	C220.833328,180.652405 220.573166,178.368881 217.508041,178.398224 
	C214.611755,178.425934 214.039612,180.473038 213.263641,182.512314 
	C208.067551,196.168182 208.063950,196.168350 193.313232,196.131546 
	C191.147797,196.126144 188.964554,196.269287 186.820709,196.045380 
	C182.156418,195.558212 178.751450,193.569229 177.526367,188.526367 
	C176.629837,184.835968 174.896118,181.353897 173.915222,177.677673 
	C172.878052,173.790634 174.395508,171.720123 178.729980,171.730545 
	C204.383408,171.792221 230.037170,171.708557 255.690552,171.775940 
	C261.247620,171.790527 262.325745,173.673035 260.540070,179.070038 
	C259.917938,180.950363 259.539276,182.916260 259.123047,184.858871 
	C257.380402,192.992371 253.627060,196.065857 244.800568,196.152466 
z"/>
<path fill="#000000" opacity="1.000000" stroke="none" 
	d="
M366.369812,246.881744 
	C366.338959,255.423431 363.674164,259.060974 357.612091,259.307190 
	C352.041809,259.533447 348.293365,256.572540 347.803711,250.972290 
	C347.443054,246.847549 347.486938,242.647079 347.799011,238.514221 
	C348.180206,233.466064 352.274170,229.800995 356.982300,229.763641 
	C361.666901,229.726486 365.710449,233.372604 366.253876,238.435181 
	C366.536407,241.067398 366.346619,243.750320 366.369812,246.881744 
M359.839569,239.330719 
	C359.413483,237.477646 358.386719,236.305481 356.358032,236.729568 
	C354.605469,237.095947 354.072998,238.571243 354.050446,240.131546 
	C354.002655,243.432602 353.997101,246.740067 354.158051,250.035950 
	C354.242767,251.770630 354.991150,253.410568 357.045105,253.443924 
	C359.160431,253.478287 359.818085,251.808151 359.883545,250.065186 
	C360.007477,246.766678 359.940918,243.461029 359.839569,239.330719 
z"/>
<path fill="#000000" opacity="1.000000" stroke="none" 
	d="
M317.627228,191.276016 
	C319.688477,191.894470 320.871185,192.975998 321.652771,194.551804 
	C324.952820,201.205063 324.305542,208.088242 322.072144,214.715073 
	C320.386353,219.717087 315.837402,220.308716 311.271667,219.267166 
	C306.768463,218.239868 304.738007,215.013229 304.682343,210.494431 
	C304.643402,207.333786 304.635071,204.172134 304.664764,201.011414 
	C304.742584,192.731293 309.006439,189.397903 317.627228,191.276016 
M310.376740,209.760391 
	C310.629181,211.984695 311.594849,213.728500 314.078796,213.484070 
	C316.757416,213.220490 316.743561,210.881393 316.816864,208.917221 
	C316.921753,206.108200 316.881683,203.290726 316.809967,200.479248 
	C316.763397,198.654892 316.102295,197.180222 313.937256,197.195023 
	C311.804962,197.209579 310.461639,198.232498 310.408081,200.476425 
	C310.340942,203.289398 310.366241,206.104568 310.376740,209.760391 
z"/>
<path fill="#000000" opacity="1.000000" stroke="none" 
	d="
M337.303101,258.975952 
	C327.334778,259.717651 323.911011,256.493042 323.934570,246.770599 
	C323.942200,243.630447 323.623596,240.466156 324.526276,237.367126 
	C325.834015,232.877441 330.321869,229.402771 334.381195,229.811722 
	C339.178802,230.295044 342.931824,234.082565 343.201019,239.066605 
	C343.406586,242.872864 343.289124,246.698532 343.257629,250.515076 
	C343.224884,254.485413 340.501373,256.703339 337.303101,258.975952 
M336.924225,251.031891 
	C338.216248,247.463852 337.658203,243.783173 337.387787,240.169342 
	C337.226410,238.012436 335.820374,236.318802 333.406738,236.580215 
	C331.265442,236.812134 330.430908,238.540756 330.400116,240.557541 
	C330.354431,243.552658 330.136566,246.581299 330.485474,249.537399 
	C330.948517,253.460068 333.059418,254.101028 336.924225,251.031891 
z"/>
<path fill="#000000" opacity="1.000000" stroke="none" 
	d="
M341.705231,211.536041 
	C341.677032,207.262573 341.567261,203.435974 341.697083,199.617538 
	C341.883911,194.123718 345.575256,190.451157 350.777039,190.364838 
	C355.791107,190.281647 360.007996,194.123474 360.338165,199.242889 
	C360.562500,202.720810 360.745239,206.217560 360.641205,209.696762 
	C360.483215,214.979233 356.712158,219.270035 352.109955,219.758453 
	C346.742157,220.328110 343.480011,217.885468 341.705231,211.536041 
M347.346832,204.560272 
	C347.380524,206.386337 347.239441,208.237289 347.494843,210.031799 
	C347.775879,212.006424 349.033173,213.437180 351.131042,213.492203 
	C353.329468,213.549866 353.886566,211.676575 353.967316,210.044418 
	C354.130737,206.742950 354.028687,203.421982 353.895172,200.114746 
	C353.822632,198.318924 353.029785,196.698120 350.969788,196.766037 
	C348.956329,196.832413 347.562317,198.016388 347.412811,200.206360 
	C347.333740,201.364929 347.365021,202.531021 347.346832,204.560272 
z"/>
<path fill="#000000" opacity="1.000000" stroke="none" 
	d="
M334.998108,156.661148 
	C329.834442,162.070892 324.833679,167.159927 319.757568,172.172684 
	C318.342346,173.570267 316.685638,175.179932 314.705780,172.995499 
	C312.951996,171.060516 313.933044,169.357559 315.495483,167.805161 
	C318.321320,164.997498 321.001343,162.029114 323.969818,159.383118 
	C326.746063,156.908463 327.446228,154.852631 324.183167,152.174438 
	C321.376434,149.870789 318.785278,147.269516 316.323761,144.592987 
	C314.802612,142.938965 312.862610,140.882446 315.469604,138.642838 
	C317.840027,136.606476 319.350311,138.668716 320.873779,140.194305 
	C324.857300,144.183395 328.836670,148.176651 332.835510,152.150299 
	C334.014832,153.322144 335.365967,154.371918 334.998108,156.661148 
z"/>
<path fill="#000000" opacity="1.000000" stroke="none" 
	d="
M352.063049,166.718994 
	C358.845154,166.719330 365.136322,166.704758 371.427368,166.730560 
	C373.420288,166.738724 375.833923,166.592422 375.964020,169.335495 
	C376.098236,172.165146 373.773224,172.822250 371.500214,172.839706 
	C363.554932,172.900696 355.607910,172.901154 347.663483,172.788376 
	C345.532898,172.758133 342.951569,172.546356 342.868042,169.637177 
	C342.774628,166.382904 345.574951,166.951874 347.600922,166.760315 
	C348.914185,166.636139 350.247650,166.725861 352.063049,166.718994 
z"/>
<path fill="#000000" opacity="1.000000" stroke="none" 
	d="
M320.299957,249.905182 
	C320.244720,252.372238 320.319977,254.369980 320.095673,256.333496 
	C319.875824,258.258240 318.549255,259.245056 316.631470,259.117065 
	C314.917786,259.002747 313.832886,257.907928 313.817932,256.212097 
	C313.750732,248.600830 313.723328,240.987869 313.825592,233.377457 
	C313.850586,231.515961 315.182159,230.214981 317.062439,230.300980 
	C319.203949,230.398941 320.215302,231.953079 320.237244,234.027222 
	C320.291595,239.158066 320.282776,244.289612 320.299957,249.905182 
z"/>
<path fill="#000000" opacity="1.000000" stroke="none" 
	d="
M329.649597,211.825806 
	C329.659119,205.886871 329.664032,200.424927 329.681793,194.963013 
	C329.688080,193.026978 330.016541,191.100021 332.363495,190.911469 
	C334.994537,190.700119 335.791443,192.752823 335.843140,194.825043 
	C336.004059,201.275024 336.020355,207.730499 335.969208,214.182861 
	C335.951111,216.461105 336.081329,219.239883 332.745941,219.320541 
	C329.169098,219.407059 329.798615,216.517685 329.661133,214.288605 
	C329.620453,213.628937 329.651703,212.964859 329.649597,211.825806 
z"/>
<path fill="#000000" opacity="1.000000" stroke="none" 
	d="
M370.708252,246.982391 
	C370.716797,242.340790 370.701660,238.193237 370.745392,234.046295 
	C370.766479,232.045135 371.493591,230.173401 373.690857,230.128815 
	C376.143066,230.079041 376.348511,232.220734 376.355713,234.101288 
	C376.383087,241.234619 376.375580,248.368240 376.341095,255.501556 
	C376.332825,257.208984 376.188293,259.004913 373.867767,259.072662 
	C371.429169,259.143890 370.834320,257.439331 370.782745,255.438538 
	C370.714325,252.785721 370.729523,250.130737 370.708252,246.982391 
z"/>
<path fill="#000000" opacity="1.000000" stroke="none" 
	d="
M292.645508,197.143524 
	C292.699707,195.505066 292.665649,194.334671 292.826447,193.191666 
	C293.038269,191.685806 293.995514,190.800354 295.534302,190.843628 
	C297.033295,190.885788 298.202759,191.747528 298.217834,193.247604 
	C298.297668,201.199341 298.310669,209.153305 298.195099,217.104294 
	C298.168152,218.958267 296.607513,219.529465 294.953400,219.334106 
	C293.035004,219.107498 292.706177,217.604507 292.696930,216.027298 
	C292.660858,209.892899 292.658722,203.758301 292.645508,197.143524 
z"/>
</svg>